<svg width="14" height="16" viewBox="0 0 14 16" fill="none" xmlns="http://www.w3.org/2000/svg">
<path fill-rule="evenodd" clip-rule="evenodd" d="M4.36919 3.90481C4.36919 2.45189 5.54722 1.27386 7.00014 1.27386C8.45307 1.27386 9.6311 2.45189 9.6311 3.90481V4.91671H4.36919V3.90481ZM3.75939 6.13099C3.76027 6.131 3.76116 6.131 3.76205 6.131C3.76294 6.131 3.76383 6.131 3.76471 6.13099H10.2356C10.2365 6.131 10.2374 6.131 10.2382 6.131C10.2391 6.131 10.24 6.131 10.2409 6.13099H11.0476C11.6068 6.13099 12.0595 6.58369 12.0595 7.1429V13.6191C12.0595 14.1783 11.6068 14.631 11.0476 14.631H2.95239C2.39318 14.631 1.94048 14.1783 1.94048 13.6191V7.1429C1.94048 6.58369 2.39318 6.13099 2.95239 6.13099H3.75939ZM3.15491 4.91671V3.90481C3.15491 1.78125 4.87659 0.0595703 7.00014 0.0595703C9.1237 0.0595703 10.8454 1.78125 10.8454 3.90481V4.91671H11.0476C12.2775 4.91671 13.2738 5.91306 13.2738 7.1429V13.6191C13.2738 14.8489 12.2775 15.8453 11.0476 15.8453H2.95239C1.72255 15.8453 0.726196 14.8489 0.726196 13.6191V7.1429C0.726196 5.91306 1.72255 4.91671 2.95239 4.91671H3.15491ZM7.85868 10.2277C7.78175 10.3047 7.69707 10.3691 7.60715 10.4211V12.0729C7.60715 12.4082 7.33532 12.6801 7.00001 12.6801C6.66469 12.6801 6.39286 12.4082 6.39286 12.0729V10.421C6.30298 10.3691 6.21833 10.3046 6.14142 10.2277C5.66721 9.75351 5.66721 8.98467 6.14142 8.51046C6.61563 8.03625 7.38447 8.03625 7.85868 8.51046C8.33289 8.98467 8.33289 9.75351 7.85868 10.2277Z" fill="#E0DEEA"/>
</svg>
