<svg width="16" height="13" viewBox="0 0 16 13" fill="none" xmlns="http://www.w3.org/2000/svg">
<path fill-rule="evenodd" clip-rule="evenodd" d="M1.4514 6.73141C2.16937 5.40372 3.19054 4.16811 4.35265 3.27003C5.51812 2.36935 6.78611 1.83691 8.00737 1.83691C9.22862 1.83691 10.4966 2.36934 11.6621 3.27011C12.8242 4.16831 13.8454 5.40417 14.5634 6.73232C14.5927 6.7869 14.5928 6.85453 14.5635 6.90916C13.8455 8.23696 12.8243 9.47269 11.6621 10.3708C10.4966 11.2715 9.22862 11.804 8.00737 11.804C6.78612 11.804 5.51813 11.2715 4.35267 10.3708C3.19056 9.47258 2.16938 8.23677 1.45141 6.90868C1.42196 6.85397 1.42196 6.78612 1.4514 6.73141ZM1.4514 6.73141C1.45143 6.73135 1.45146 6.73128 1.4515 6.73122L0.925199 6.44727L1.45123 6.73171C1.45129 6.73161 1.45134 6.73151 1.4514 6.73141ZM8.00737 0.640869C6.44184 0.640869 4.92305 1.31764 3.62128 2.32365C2.31624 3.3322 1.18978 4.70065 0.399145 6.16282L0.398879 6.16331C0.178075 6.57258 0.178075 7.0675 0.398879 7.47676L0.399111 7.47719C1.18974 8.93977 2.3162 10.3084 3.62126 11.3171C4.92304 12.3232 6.44183 13 8.00737 13C9.5729 13 11.0917 12.3232 12.3935 11.3172C13.6985 10.3087 14.825 8.94021 15.6156 7.47805L15.6159 7.47755C15.8367 7.06829 15.8367 6.57337 15.6159 6.16411L15.6156 6.16368C14.825 4.7011 13.6985 3.33243 12.3935 2.32377C11.0917 1.31764 9.5729 0.640869 8.00737 0.640869ZM6.71863 5.53168C7.43037 4.81994 8.58434 4.81994 9.29608 5.53168C10.0078 6.24342 10.0078 7.39739 9.29608 8.10913C8.58434 8.82088 7.43037 8.82088 6.71863 8.10913C6.00689 7.39739 6.00689 6.24342 6.71863 5.53168ZM5.91316 4.72621C7.06975 3.56962 8.94496 3.56962 10.1016 4.72621C11.2581 5.8828 11.2581 7.75802 10.1016 8.91461C8.94496 10.0712 7.06975 10.0712 5.91316 8.91461C4.75656 7.75802 4.75656 5.8828 5.91316 4.72621Z" fill="#E0DEEA"/>
</svg>
