<svg width="178" height="32" viewBox="0 0 178 32" fill="none" xmlns="http://www.w3.org/2000/svg">
<path fill-rule="evenodd" clip-rule="evenodd" d="M9.57017 5.85619C9.81308 6.19171 9.73799 6.66061 9.40248 6.90351C8.68107 7.42578 8.02524 8.02696 7.45041 8.70029C7.18147 9.01532 6.70807 9.05269 6.39304 8.78374C6.07801 8.5148 6.04065 8.0414 6.30959 7.72637C6.96409 6.95971 7.70826 6.27822 8.52286 5.68849C8.85837 5.44559 9.32727 5.52067 9.57017 5.85619Z" fill="#FBAB34"/>
<path fill-rule="evenodd" clip-rule="evenodd" d="M23.2898 25.5586C23.5203 25.9027 23.4282 26.3686 23.0841 26.5991C21.0582 27.9563 18.6216 28.75 16 28.75C14.7079 28.75 13.4624 28.5544 12.2885 28.1976C11.8922 28.0771 11.6686 27.6582 11.7891 27.2619C11.9096 26.8656 12.3285 26.642 12.7248 26.7624C13.7616 27.0776 14.8601 27.25 16 27.25C18.3144 27.25 20.4619 26.5503 22.2492 25.3529C22.5934 25.1224 23.0592 25.2144 23.2898 25.5586Z" fill="#FBAB34"/>
<path fill-rule="evenodd" clip-rule="evenodd" d="M4.44681 19.2931C4.83723 19.1547 5.26589 19.3591 5.40425 19.7495C6.10594 21.7294 7.33634 23.4569 8.93668 24.75C9.25887 25.0103 9.30903 25.4825 9.04871 25.8047C8.78839 26.1269 8.31618 26.177 7.99398 25.9167C6.17832 24.4497 4.78473 22.4919 3.99041 20.2505C3.85205 19.8601 4.05639 19.4314 4.44681 19.2931Z" fill="#FBAB34"/>
<path fill-rule="evenodd" clip-rule="evenodd" d="M4.94777 11.293C5.33821 11.4314 5.5426 11.86 5.40428 12.2504C4.98674 13.4291 4.75 14.6859 4.75 16C4.75 16.4142 4.41421 16.75 4 16.75C3.58579 16.75 3.25 16.4142 3.25 16C3.25 14.5035 3.51993 13.0776 3.99038 11.7496C4.1287 11.3591 4.55734 11.1547 4.94777 11.293Z" fill="#FBAB34"/>
<path fill-rule="evenodd" clip-rule="evenodd" d="M16 4.75C14.8601 4.75 13.7616 4.92242 12.7248 5.23758C12.3285 5.35805 11.9096 5.13444 11.7891 4.73813C11.6686 4.34182 11.8922 3.92289 12.2885 3.80242C13.4624 3.44558 14.7079 3.25 16 3.25C23.0422 3.25 28.75 8.95779 28.75 16C28.75 18.631 27.9367 21.061 26.5727 23.0857C26.3413 23.4292 25.8752 23.5201 25.5316 23.2887C25.1881 23.0573 25.0972 22.5912 25.3286 22.2476C26.5353 20.4564 27.25 18.3157 27.25 16C27.25 9.78621 22.2138 4.75 16 4.75Z" fill="#FBAB34"/>
<path fill-rule="evenodd" clip-rule="evenodd" d="M11.7633 15.9733C11.7633 15.5591 12.0991 15.2233 12.5133 15.2233H18.24C20.0102 15.2233 21.446 16.6591 21.446 18.4293C21.446 20.1985 20.0113 21.6327 18.2413 21.6327H12.5133C12.0991 21.6327 11.7633 21.2969 11.7633 20.8827V15.9733ZM13.2633 16.7233V20.1327H18.2413C19.1834 20.1327 19.946 19.3695 19.946 18.4293C19.946 17.4875 19.1818 16.7233 18.24 16.7233H13.2633Z" fill="#FBAB34"/>
<path fill-rule="evenodd" clip-rule="evenodd" d="M11.7633 10.9093C11.7633 10.4951 12.0991 10.1593 12.5133 10.1593H17.62C19.4329 10.1593 20.902 11.6285 20.902 13.4413C20.902 15.2542 19.4329 16.7233 17.62 16.7233C17.2058 16.7233 16.87 16.3875 16.87 15.9733C16.87 15.5591 17.2058 15.2233 17.62 15.2233C18.6045 15.2233 19.402 14.4258 19.402 13.4413C19.402 12.4569 18.6045 11.6593 17.62 11.6593H13.2633V15.9733C13.2633 16.3875 12.9275 16.7233 12.5133 16.7233C12.0991 16.7233 11.7633 16.3875 11.7633 15.9733V10.9093Z" fill="#FBAB34"/>
<path fill-rule="evenodd" clip-rule="evenodd" d="M15.712 8.70467C16.1262 8.70467 16.462 9.04045 16.462 9.45467V10.9053C16.462 11.3195 16.1262 11.6553 15.712 11.6553C15.2978 11.6553 14.962 11.3195 14.962 10.9053V9.45467C14.962 9.04045 15.2978 8.70467 15.712 8.70467Z" fill="#FBAB34"/>
<path fill-rule="evenodd" clip-rule="evenodd" d="M15.712 20.1593C16.1262 20.1593 16.462 20.4951 16.462 20.9093V22.5453C16.462 22.9595 16.1262 23.2953 15.712 23.2953C15.2978 23.2953 14.962 22.9595 14.962 22.5453V20.9093C14.962 20.4951 15.2978 20.1593 15.712 20.1593Z" fill="#FBAB34"/>
<path d="M57.2188 6.9375V24H53.7148V6.9375H57.2188ZM62.4688 6.9375V9.69141H48.5469V6.9375H62.4688ZM61.6836 17.7891V17.543C61.6836 16.6133 61.8164 15.7578 62.082 14.9766C62.3477 14.1875 62.7344 13.5039 63.2422 12.9258C63.75 12.3477 64.375 11.8984 65.1172 11.5781C65.8594 11.25 66.7109 11.0859 67.6719 11.0859C68.6328 11.0859 69.4883 11.25 70.2383 11.5781C70.9883 11.8984 71.6172 12.3477 72.125 12.9258C72.6406 13.5039 73.0312 14.1875 73.2969 14.9766C73.5625 15.7578 73.6953 16.6133 73.6953 17.543V17.7891C73.6953 18.7109 73.5625 19.5664 73.2969 20.3555C73.0312 21.1367 72.6406 21.8203 72.125 22.4062C71.6172 22.9844 70.9922 23.4336 70.25 23.7539C69.5078 24.0742 68.6562 24.2344 67.6953 24.2344C66.7344 24.2344 65.8789 24.0742 65.1289 23.7539C64.3867 23.4336 63.7578 22.9844 63.2422 22.4062C62.7344 21.8203 62.3477 21.1367 62.082 20.3555C61.8164 19.5664 61.6836 18.7109 61.6836 17.7891ZM65.0586 17.543V17.7891C65.0586 18.3203 65.1055 18.8164 65.1992 19.2773C65.293 19.7383 65.4414 20.1445 65.6445 20.4961C65.8555 20.8398 66.1289 21.1094 66.4648 21.3047C66.8008 21.5 67.2109 21.5977 67.6953 21.5977C68.1641 21.5977 68.5664 21.5 68.9023 21.3047C69.2383 21.1094 69.5078 20.8398 69.7109 20.4961C69.9141 20.1445 70.0625 19.7383 70.1562 19.2773C70.2578 18.8164 70.3086 18.3203 70.3086 17.7891V17.543C70.3086 17.0273 70.2578 16.543 70.1562 16.0898C70.0625 15.6289 69.9102 15.2227 69.6992 14.8711C69.4961 14.5117 69.2266 14.2305 68.8906 14.0273C68.5547 13.8242 68.1484 13.7227 67.6719 13.7227C67.1953 13.7227 66.7891 13.8242 66.4531 14.0273C66.125 14.2305 65.8555 14.5117 65.6445 14.8711C65.4414 15.2227 65.293 15.6289 65.1992 16.0898C65.1055 16.543 65.0586 17.0273 65.0586 17.543ZM79.1445 13.7578V28.875H75.7695V11.3203H78.8984L79.1445 13.7578ZM87.1719 17.5195V17.7656C87.1719 18.6875 87.0625 19.543 86.8438 20.332C86.6328 21.1211 86.3203 21.8086 85.9062 22.3945C85.4922 22.9727 84.9766 23.4258 84.3594 23.7539C83.75 24.0742 83.0469 24.2344 82.25 24.2344C81.4766 24.2344 80.8047 24.0781 80.2344 23.7656C79.6641 23.4531 79.1836 23.0156 78.793 22.4531C78.4102 21.8828 78.1016 21.2227 77.8672 20.4727C77.6328 19.7227 77.4531 18.918 77.3281 18.0586V17.4141C77.4531 16.4922 77.6328 15.6484 77.8672 14.8828C78.1016 14.1094 78.4102 13.4414 78.793 12.8789C79.1836 12.3086 79.6602 11.8672 80.2227 11.5547C80.793 11.2422 81.4609 11.0859 82.2266 11.0859C83.0312 11.0859 83.7383 11.2383 84.3477 11.543C84.9648 11.8477 85.4805 12.2852 85.8945 12.8555C86.3164 13.4258 86.6328 14.1055 86.8438 14.8945C87.0625 15.6836 87.1719 16.5586 87.1719 17.5195ZM83.7852 17.7656V17.5195C83.7852 16.9805 83.7383 16.4844 83.6445 16.0312C83.5586 15.5703 83.418 15.168 83.2227 14.8242C83.0352 14.4805 82.7852 14.2148 82.4727 14.0273C82.168 13.832 81.7969 13.7344 81.3594 13.7344C80.8984 13.7344 80.5039 13.8086 80.1758 13.957C79.8555 14.1055 79.5938 14.3203 79.3906 14.6016C79.1875 14.8828 79.0352 15.2188 78.9336 15.6094C78.832 16 78.7695 16.4414 78.7461 16.9336V18.5625C78.7852 19.1406 78.8945 19.6602 79.0742 20.1211C79.2539 20.5742 79.5312 20.9336 79.9062 21.1992C80.2812 21.4648 80.7734 21.5977 81.3828 21.5977C81.8281 21.5977 82.2031 21.5 82.5078 21.3047C82.8125 21.1016 83.0586 20.8242 83.2461 20.4727C83.4414 20.1211 83.5781 19.7148 83.6562 19.2539C83.7422 18.793 83.7852 18.2969 83.7852 17.7656ZM105.348 18.3398H108.852C108.781 19.4883 108.465 20.5078 107.902 21.3984C107.348 22.2891 106.57 22.9844 105.57 23.4844C104.578 23.9844 103.383 24.2344 101.984 24.2344C100.891 24.2344 99.9102 24.0469 99.043 23.6719C98.1758 23.2891 97.4336 22.7422 96.8164 22.0312C96.207 21.3203 95.7422 20.4609 95.4219 19.4531C95.1016 18.4453 94.9414 17.3164 94.9414 16.0664V14.8828C94.9414 13.6328 95.1055 12.5039 95.4336 11.4961C95.7695 10.4805 96.2461 9.61719 96.8633 8.90625C97.4883 8.19531 98.2344 7.64844 99.1016 7.26562C99.9688 6.88281 100.938 6.69141 102.008 6.69141C103.43 6.69141 104.629 6.94922 105.605 7.46484C106.59 7.98047 107.352 8.69141 107.891 9.59766C108.438 10.5039 108.766 11.5352 108.875 12.6914H105.359C105.32 12.0039 105.184 11.4219 104.949 10.9453C104.715 10.4609 104.359 10.0977 103.883 9.85547C103.414 9.60547 102.789 9.48047 102.008 9.48047C101.422 9.48047 100.91 9.58984 100.473 9.80859C100.035 10.0273 99.668 10.3594 99.3711 10.8047C99.0742 11.25 98.8516 11.8125 98.7031 12.4922C98.5625 13.1641 98.4922 13.9531 98.4922 14.8594V16.0664C98.4922 16.9492 98.5586 17.7266 98.6914 18.3984C98.8242 19.0625 99.0273 19.625 99.3008 20.0859C99.582 20.5391 99.9414 20.8828 100.379 21.1172C100.824 21.3438 101.359 21.457 101.984 21.457C102.719 21.457 103.324 21.3398 103.801 21.1055C104.277 20.8711 104.641 20.5234 104.891 20.0625C105.148 19.6016 105.301 19.0273 105.348 18.3398ZM114.324 14.0859V24H110.949V11.3203H114.125L114.324 14.0859ZM118.145 11.2383L118.086 14.3672C117.922 14.3438 117.723 14.3242 117.488 14.3086C117.262 14.2852 117.055 14.2734 116.867 14.2734C116.391 14.2734 115.977 14.3359 115.625 14.4609C115.281 14.5781 114.992 14.7539 114.758 14.9883C114.531 15.2227 114.359 15.5078 114.242 15.8438C114.133 16.1797 114.07 16.5625 114.055 16.9922L113.375 16.7812C113.375 15.9609 113.457 15.207 113.621 14.5195C113.785 13.8242 114.023 13.2188 114.336 12.7031C114.656 12.1875 115.047 11.7891 115.508 11.5078C115.969 11.2266 116.496 11.0859 117.09 11.0859C117.277 11.0859 117.469 11.1016 117.664 11.1328C117.859 11.1562 118.02 11.1914 118.145 11.2383ZM123.711 22.5703L127.074 11.3203H130.695L125.598 25.9102C125.488 26.2305 125.34 26.5742 125.152 26.9414C124.973 27.3086 124.727 27.6562 124.414 27.9844C124.109 28.3203 123.723 28.5938 123.254 28.8047C122.793 29.0156 122.227 29.1211 121.555 29.1211C121.234 29.1211 120.973 29.1016 120.77 29.0625C120.566 29.0234 120.324 28.9688 120.043 28.8984V26.4258C120.129 26.4258 120.219 26.4258 120.312 26.4258C120.406 26.4336 120.496 26.4375 120.582 26.4375C121.027 26.4375 121.391 26.3867 121.672 26.2852C121.953 26.1836 122.18 26.0273 122.352 25.8164C122.523 25.6133 122.66 25.3477 122.762 25.0195L123.711 22.5703ZM122.305 11.3203L125.059 20.5078L125.539 24.082L123.242 24.3281L118.684 11.3203H122.305ZM135.418 13.7578V28.875H132.043V11.3203H135.172L135.418 13.7578ZM143.445 17.5195V17.7656C143.445 18.6875 143.336 19.543 143.117 20.332C142.906 21.1211 142.594 21.8086 142.18 22.3945C141.766 22.9727 141.25 23.4258 140.633 23.7539C140.023 24.0742 139.32 24.2344 138.523 24.2344C137.75 24.2344 137.078 24.0781 136.508 23.7656C135.938 23.4531 135.457 23.0156 135.066 22.4531C134.684 21.8828 134.375 21.2227 134.141 20.4727C133.906 19.7227 133.727 18.918 133.602 18.0586V17.4141C133.727 16.4922 133.906 15.6484 134.141 14.8828C134.375 14.1094 134.684 13.4414 135.066 12.8789C135.457 12.3086 135.934 11.8672 136.496 11.5547C137.066 11.2422 137.734 11.0859 138.5 11.0859C139.305 11.0859 140.012 11.2383 140.621 11.543C141.238 11.8477 141.754 12.2852 142.168 12.8555C142.59 13.4258 142.906 14.1055 143.117 14.8945C143.336 15.6836 143.445 16.5586 143.445 17.5195ZM140.059 17.7656V17.5195C140.059 16.9805 140.012 16.4844 139.918 16.0312C139.832 15.5703 139.691 15.168 139.496 14.8242C139.309 14.4805 139.059 14.2148 138.746 14.0273C138.441 13.832 138.07 13.7344 137.633 13.7344C137.172 13.7344 136.777 13.8086 136.449 13.957C136.129 14.1055 135.867 14.3203 135.664 14.6016C135.461 14.8828 135.309 15.2188 135.207 15.6094C135.105 16 135.043 16.4414 135.02 16.9336V18.5625C135.059 19.1406 135.168 19.6602 135.348 20.1211C135.527 20.5742 135.805 20.9336 136.18 21.1992C136.555 21.4648 137.047 21.5977 137.656 21.5977C138.102 21.5977 138.477 21.5 138.781 21.3047C139.086 21.1016 139.332 20.8242 139.52 20.4727C139.715 20.1211 139.852 19.7148 139.93 19.2539C140.016 18.793 140.059 18.2969 140.059 17.7656ZM151.754 11.3203V13.7109H144.371V11.3203H151.754ZM146.199 8.19141H149.574V20.1797C149.574 20.5469 149.621 20.8281 149.715 21.0234C149.816 21.2188 149.965 21.3555 150.16 21.4336C150.355 21.5039 150.602 21.5391 150.898 21.5391C151.109 21.5391 151.297 21.5312 151.461 21.5156C151.633 21.4922 151.777 21.4688 151.895 21.4453L151.906 23.9297C151.617 24.0234 151.305 24.0977 150.969 24.1523C150.633 24.207 150.262 24.2344 149.855 24.2344C149.113 24.2344 148.465 24.1133 147.91 23.8711C147.363 23.6211 146.941 23.2227 146.645 22.6758C146.348 22.1289 146.199 21.4102 146.199 20.5195V8.19141ZM152.832 17.7891V17.543C152.832 16.6133 152.965 15.7578 153.23 14.9766C153.496 14.1875 153.883 13.5039 154.391 12.9258C154.898 12.3477 155.523 11.8984 156.266 11.5781C157.008 11.25 157.859 11.0859 158.82 11.0859C159.781 11.0859 160.637 11.25 161.387 11.5781C162.137 11.8984 162.766 12.3477 163.273 12.9258C163.789 13.5039 164.18 14.1875 164.445 14.9766C164.711 15.7578 164.844 16.6133 164.844 17.543V17.7891C164.844 18.7109 164.711 19.5664 164.445 20.3555C164.18 21.1367 163.789 21.8203 163.273 22.4062C162.766 22.9844 162.141 23.4336 161.398 23.7539C160.656 24.0742 159.805 24.2344 158.844 24.2344C157.883 24.2344 157.027 24.0742 156.277 23.7539C155.535 23.4336 154.906 22.9844 154.391 22.4062C153.883 21.8203 153.496 21.1367 153.23 20.3555C152.965 19.5664 152.832 18.7109 152.832 17.7891ZM156.207 17.543V17.7891C156.207 18.3203 156.254 18.8164 156.348 19.2773C156.441 19.7383 156.59 20.1445 156.793 20.4961C157.004 20.8398 157.277 21.1094 157.613 21.3047C157.949 21.5 158.359 21.5977 158.844 21.5977C159.312 21.5977 159.715 21.5 160.051 21.3047C160.387 21.1094 160.656 20.8398 160.859 20.4961C161.062 20.1445 161.211 19.7383 161.305 19.2773C161.406 18.8164 161.457 18.3203 161.457 17.7891V17.543C161.457 17.0273 161.406 16.543 161.305 16.0898C161.211 15.6289 161.059 15.2227 160.848 14.8711C160.645 14.5117 160.375 14.2305 160.039 14.0273C159.703 13.8242 159.297 13.7227 158.82 13.7227C158.344 13.7227 157.938 13.8242 157.602 14.0273C157.273 14.2305 157.004 14.5117 156.793 14.8711C156.59 15.2227 156.441 15.6289 156.348 16.0898C156.254 16.543 156.207 17.0273 156.207 17.543ZM173.773 20.4961C173.773 20.2539 173.703 20.0352 173.562 19.8398C173.422 19.6445 173.16 19.4648 172.777 19.3008C172.402 19.1289 171.859 18.9727 171.148 18.832C170.508 18.6914 169.91 18.5156 169.355 18.3047C168.809 18.0859 168.332 17.8242 167.926 17.5195C167.527 17.2148 167.215 16.8555 166.988 16.4414C166.762 16.0195 166.648 15.5391 166.648 15C166.648 14.4688 166.762 13.9688 166.988 13.5C167.223 13.0312 167.555 12.6172 167.984 12.2578C168.422 11.8906 168.953 11.6055 169.578 11.4023C170.211 11.1914 170.922 11.0859 171.711 11.0859C172.812 11.0859 173.758 11.2617 174.547 11.6133C175.344 11.9648 175.953 12.4492 176.375 13.0664C176.805 13.6758 177.02 14.3711 177.02 15.1523H173.645C173.645 14.8242 173.574 14.5312 173.434 14.2734C173.301 14.0078 173.09 13.8008 172.801 13.6523C172.52 13.4961 172.152 13.418 171.699 13.418C171.324 13.418 171 13.4844 170.727 13.6172C170.453 13.7422 170.242 13.9141 170.094 14.1328C169.953 14.3438 169.883 14.5781 169.883 14.8359C169.883 15.0312 169.922 15.207 170 15.3633C170.086 15.5117 170.223 15.6484 170.41 15.7734C170.598 15.8984 170.84 16.0156 171.137 16.125C171.441 16.2266 171.816 16.3203 172.262 16.4062C173.176 16.5938 173.992 16.8398 174.711 17.1445C175.43 17.4414 176 17.8477 176.422 18.3633C176.844 18.8711 177.055 19.5391 177.055 20.3672C177.055 20.9297 176.93 21.4453 176.68 21.9141C176.43 22.3828 176.07 22.793 175.602 23.1445C175.133 23.4883 174.57 23.7578 173.914 23.9531C173.266 24.1406 172.535 24.2344 171.723 24.2344C170.543 24.2344 169.543 24.0234 168.723 23.6016C167.91 23.1797 167.293 22.6445 166.871 21.9961C166.457 21.3398 166.25 20.668 166.25 19.9805H169.449C169.465 20.4414 169.582 20.8125 169.801 21.0938C170.027 21.375 170.312 21.5781 170.656 21.7031C171.008 21.8281 171.387 21.8906 171.793 21.8906C172.23 21.8906 172.594 21.832 172.883 21.7148C173.172 21.5898 173.391 21.4258 173.539 21.2227C173.695 21.0117 173.773 20.7695 173.773 20.4961Z" fill="#5D6670"/>
</svg>
